<?xml version="1.0" encoding="UTF-8"?>
<svg width="16px" height="16px" viewBox="0 0 16 16" version="1.1" xmlns="http://www.w3.org/2000/svg" xmlns:xlink="http://www.w3.org/1999/xlink">
    <!-- Generator: Sketch 51.2 (57519) - http://www.bohemiancoding.com/sketch -->
    <title>rp</title>
    <desc>Created with Sketch.</desc>
    <defs></defs>
    <g id="rp" stroke="none" stroke-width="1" fill="none" fill-rule="evenodd">
        <g id="repu" transform="translate(0.000000, 2.000000)">
            <g id="Group-19">
                <path d="M15.0606602,8.23223305 C15.3419647,7.95092848 15.5,7.56939761 15.5,7.17157288 L15.5,2 C15.5,1.17157288 14.8284271,0.5 14,0.5 L2,0.5 C1.17157288,0.5 0.5,1.17157288 0.5,2 L0.5,10 C0.5,10.8284271 1.17157288,11.5 2,11.5 L11.1715729,11.5 C11.5693976,11.5 11.9509285,11.3419647 12.232233,11.0606602 L15.0606602,8.23223305 Z" id="Combined-Shape" stroke="#BF7158" fill="#BF7158" fill-rule="nonzero"></path>
                <path d="M3,9 L3,3 L5.199877,3 C5.76240544,3 6.16420544,3.05388759 6.40528905,3.16166439 C6.64637267,3.26944119 6.84440267,3.45634246 6.99938499,3.72237381 C7.15436732,3.98840515 7.23185732,4.30695585 7.23185732,4.67803547 C7.23185732,5.14734205 7.11346982,5.52523731 6.87669127,5.81173261 C6.63991272,6.0982279 6.30340522,6.27830795 5.86715867,6.35197817 C6.09102203,6.50477566 6.27613703,6.67189541 6.42250923,6.85334243 C6.56888142,7.03478945 6.76834642,7.36016136 7.02091021,7.82946794 L7.64944649,9 L6.40528905,9 L5.64760148,7.69440655 C5.37494739,7.22237145 5.18983239,6.92701287 5.09225092,6.80832196 C4.99466946,6.68963106 4.89134946,6.60777649 4.78228782,6.5627558 C4.67322619,6.51773511 4.49815619,6.4952251 4.25707257,6.4952251 L4.04182042,6.4952251 L4.04182042,9 L3,9 Z M4.04182042,5.53751705 L4.81672817,5.53751705 C5.29028527,5.53751705 5.59163527,5.51773553 5.72078721,5.4781719 C5.84993915,5.43860826 5.95469415,5.35880005 6.03505535,5.23874488 C6.11541656,5.11868971 6.15559656,4.9590733 6.15559656,4.75989086 C6.15559656,4.568894 6.11541656,4.41541668 6.03505535,4.2994543 C5.95469415,4.18349192 5.84563415,4.10368371 5.70787208,4.06002729 C5.61029062,4.03001349 5.32759562,4.01500682 4.8597786,4.01500682 L4.04182042,4.01500682 L4.04182042,5.53751705 Z M9.03505535,9 L9.03505535,3 L10.7140221,3 C11.3396915,3 11.7486665,3.0286491 11.9409594,3.08594816 C12.248054,3.17871806 12.5013315,3.37653327 12.7007995,3.67939973 C12.9002675,3.98226618 13,4.37243963 13,4.84993179 C13,5.28376752 12.9139,5.64733823 12.7416974,5.94065484 C12.5694948,6.23397145 12.3542448,6.43997212 12.095941,6.55866303 C11.8376371,6.67735394 11.3927871,6.7366985 10.7613776,6.7366985 L10.0768758,6.7366985 L10.0768758,9 L9.03505535,9 Z M10.0768758,4.01500682 L10.0768758,5.71759891 L10.6537515,5.71759891 C11.0412073,5.71759891 11.3045298,5.69167829 11.4437269,5.63983629 C11.582924,5.58799428 11.6970065,5.49454365 11.7859779,5.35948158 C11.8749492,5.22441952 11.9194342,5.05866401 11.9194342,4.8622101 C11.9194342,4.66302765 11.8735142,4.49522578 11.7816728,4.35879945 C11.6898314,4.22237312 11.5764664,4.13096885 11.4415744,4.0845839 C11.3066824,4.03819895 11.0211174,4.01500682 10.5848708,4.01500682 L10.0768758,4.01500682 Z" id="REP" fill="#FFFFFF"></path>
            </g>
        </g>
    </g>
</svg>