<?xml version="1.0" encoding="UTF-8" standalone="no"?>
<svg width="256px" height="256px" viewBox="0 0 256 256" version="1.1" xmlns="http://www.w3.org/2000/svg" xmlns:xlink="http://www.w3.org/1999/xlink" xmlns:sketch="http://www.bohemiancoding.com/sketch/ns">
    <!-- Generator: Sketch 3.4.2 (15857) - http://www.bohemiancoding.com/sketch -->
    <title>256</title>
    <desc>Created with Sketch.</desc>
    <defs></defs>
    <g id="v2" stroke="none" stroke-width="1" fill="none" fill-rule="evenodd" sketch:type="MSPage">
        <g id="256" sketch:type="MSArtboardGroup">
            <rect id="Rectangle-1" fill="#009A61" sketch:type="MSShapeGroup" x="0" y="0" width="256" height="256"></rect>
            <path d="M38.36,198.92 L38.36,201.8 C51.08,211.4 64.52,215.96 81.32,215.96 C107.72,215.96 127.64,204.92 127.64,179.48 C127.64,160.04 116.6,152.36 98.36,145.4 C85.16,140.36 74.6,138.44 74.6,129.32 C74.6,122.36 80.12,118.76 89,118.76 C99.08,118.76 108.2,122.12 114.92,127.16 L124.52,108.2 L124.52,105.32 C114.2,98.6 99.8,95.48 86.36,95.48 C61.64,95.48 41.72,106.04 41.72,130.76 C41.72,149.72 54.2,157.64 69.08,164.12 C82.28,169.88 94.04,171.56 94.04,181.64 C94.04,190.76 85.4,194.12 77.72,194.12 C67.16,194.12 56.12,187.88 48.44,180.92 C48.44,180.92 56.12,187.88 48.44,180.92 L38.36,198.92 Z M188.12,212.84 C188.12,210.44 188.12,145.16 187.64,122.6 C194.84,122.84 208.52,122.84 210.44,122.84 L210.68,98.6 C208.76,98.6 195.08,98.6 187.88,98.84 C187.88,97.88 187.64,85.16 187.64,80.84 C187.64,68.12 191.96,64.76 198.68,64.76 C202.52,64.76 206.84,65.96 210.68,68.12 L217.64,48.92 L217.64,45.32 C208.52,41.48 199.4,40.04 190.52,40.04 C169.88,40.04 154.04,50.12 154.04,77.24 C154.04,77.96 154.52,97.88 154.52,98.84 C148.28,98.6 141.8,98.6 139.88,98.6 L139.64,122.84 C141.56,122.84 148.28,122.84 154.76,122.6 C154.52,145.16 154.04,210.44 154.04,212.84 C154.04,212.84 154.04,210.44 154.04,212.84 L188.12,212.84 Z" id="sf" fill="#FFFFFF" sketch:type="MSShapeGroup"></path>
        </g>
    </g>
</svg>